<svg id="OBJECTS" xmlns="http://www.w3.org/2000/svg" viewBox="0 0 742.28 284.96"><defs><style>.cls-1{fill:#fff;}.cls-2{fill:#bde2fb;}</style></defs><path class="cls-1" d="M338.71,140.55a24.91,24.91,0,0,0-36.21-26c-3,1.62-8.12,2.22-10.23-2.6a35.92,35.92,0,0,0-53.89-15.78C235,98.57,229,98.37,227.06,92.9a52,52,0,0,0-100.13,5.34c-1,4.64-4.41,7.67-11.12,6.6A28.61,28.61,0,0,0,82.87,124.2c-1,3.07-4,4-7,2.21a19.14,19.14,0,0,0-29.7,14.14Z" transform="translate(-46.15 -45.73)"/><path class="cls-1" d="M489.2,135a14,14,0,0,0-2,.13,3.1,3.1,0,0,1-3.73-2.88,22,22,0,0,0-42.53-6c-.74,2.19-2.92,3-5.28,2a22,22,0,0,0-31.36,12.34h96A14,14,0,0,0,489.2,135Z" transform="translate(-46.15 -45.73)"/><path class="cls-2" d="M219.17,118.07l-1.31-.73c5.6-10.1,12.24-17.12,21.52-22.76l.77,1.29C231.11,101.36,224.64,108.21,219.17,118.07Z" transform="translate(-46.15 -45.73)"/><path class="cls-2" d="M140.31,122c-9.43-14.55-23.61-16.29-23.76-16.31l.17-1.49c.61.07,15,1.84,24.84,17Z" transform="translate(-46.15 -45.73)"/><path class="cls-2" d="M158.4,129.06a22.4,22.4,0,0,0-17.32-6.94A17.23,17.23,0,0,0,128.25,129l-1.2-.9A18.67,18.67,0,0,1,141,120.62a23.89,23.89,0,0,1,18.5,7.39Z" transform="translate(-46.15 -45.73)"/><path class="cls-2" d="M312.85,124.08a22.41,22.41,0,0,0-17.32-7A17.2,17.2,0,0,0,282.71,124l-1.21-.9a18.69,18.69,0,0,1,13.93-7.46A23.88,23.88,0,0,1,313.92,123Z" transform="translate(-46.15 -45.73)"/><path class="cls-2" d="M446,137.69c-3-4.8-9.74-8.47-9.81-8.51l.71-1.32c.29.16,7.14,3.9,10.37,9Z" transform="translate(-46.15 -45.73)"/><path class="cls-2" d="M466.79,138.22l-1.14-1c.08-.09,1.92-2.22,6.53-2.9l.22,1.48C468.4,136.42,466.81,138.2,466.79,138.22Z" transform="translate(-46.15 -45.73)"/><path class="cls-1" d="M518.6,86.2a13.86,13.86,0,0,1,13.82-12.73,13.57,13.57,0,0,1,2.22.18c3.13.47,5.66-.56,6.78-3.46a22.86,22.86,0,0,1,37.12-8.41c1.72,1.56,4.05,1.5,5.32-.63a27.73,27.73,0,0,1,51.24,3.78c.46,1.41,2.17,3.14,5.09,2a17.76,17.76,0,0,1,20.9,5.62c1.28,1.44,3,1.55,4.52.06a17.29,17.29,0,0,1,29.75,6.47,2.06,2.06,0,0,0,3.17,1,11.41,11.41,0,0,1,17,6.06Z" transform="translate(-46.15 -45.73)"/><path class="cls-2" d="M544.29,81.12c-3.76-5.67-8.73-6.63-8.78-6.64l.26-1.48c.23,0,5.64,1,9.77,7.29Z" transform="translate(-46.15 -45.73)"/><path class="cls-2" d="M630.3,76.84,629,76.15a20.42,20.42,0,0,1,10.42-9.71l.57,1.39A18.66,18.66,0,0,0,630.3,76.84Z" transform="translate(-46.15 -45.73)"/><path class="cls-2" d="M586.65,72.55a29.59,29.59,0,0,0-8.21-9.89l.83-1.24A30.15,30.15,0,0,1,588,71.84Z" transform="translate(-46.15 -45.73)"/><path class="cls-2" d="M695.43,83.85l-1.19-.91a15.52,15.52,0,0,1,4.5-3.8l.71,1.32A14.36,14.36,0,0,0,695.43,83.85Z" transform="translate(-46.15 -45.73)"/><path class="cls-2" d="M597.56,78.31a11.92,11.92,0,0,0-10.42-5.67,10.66,10.66,0,0,0-9,5.62l-1.31-.72a12.11,12.11,0,0,1,10.24-6.4,13.43,13.43,0,0,1,11.73,6.35Z" transform="translate(-46.15 -45.73)"/><path class="cls-2" d="M665.22,82.9A7.09,7.09,0,0,0,659,79.53a6.29,6.29,0,0,0-5.31,3.32l-1.32-.72A7.79,7.79,0,0,1,659,78a8.59,8.59,0,0,1,7.51,4Z" transform="translate(-46.15 -45.73)"/><path class="cls-2" d="M661.05,79.31l-1.21-.88a64.7,64.7,0,0,1,5.48-6.21l1.06,1.06A63.24,63.24,0,0,0,661.05,79.31Z" transform="translate(-46.15 -45.73)"/><path class="cls-1" d="M279.79,259.48v0a8.34,8.34,0,0,0-8.34-8.35c-1.71,0-5,.27-6.82-2.61a18.7,18.7,0,0,0-29-1.62,6.8,6.8,0,0,1-7.48,1.42,12.06,12.06,0,0,0-4.93-1,12.2,12.2,0,0,0-12.2,12.2v0Z" transform="translate(-46.15 -45.73)"/><path class="cls-1" d="M680.35,259.48a10.09,10.09,0,0,0-14.55-4.83c-1.21.73-3.46.06-3.93-1.24a14.85,14.85,0,0,0-20.44-8.3c-2,1-4.88.1-5.56-3.17a26.06,26.06,0,0,0-48.36-7.17c-1.5,2.69-5.37,3-7.58,1.53a20.12,20.12,0,0,0-18.41-1.87,6.42,6.42,0,0,1-8.27-4.07A31.07,31.07,0,0,0,508,215.9c-3.88,2.35-8.7,1.94-10.87-2.55A43.39,43.39,0,0,0,420,207.44c-1.65,2.71-6.74,4.16-11.38,1.35a35.85,35.85,0,0,0-57,24.31c-.18,1.45-1.63,5.39-6.66,3.9A18.69,18.69,0,0,0,322,246.05c-.94,1.77-2.85,4.12-6.54,3.32a11.79,11.79,0,0,0-3.11-.4,12.19,12.19,0,0,0-12.06,10.51Z" transform="translate(-46.15 -45.73)"/><path class="cls-2" d="M236.81,256c-3.9-5.36-8.24-6.71-8.28-6.72l.42-1.44c.2.06,4.85,1.48,9.07,7.27Z" transform="translate(-46.15 -45.73)"/><path class="cls-2" d="M263,254.94l-1.16-1a10.56,10.56,0,0,1,7.32-3.67l0,1.5A9.15,9.15,0,0,0,263,254.94Z" transform="translate(-46.15 -45.73)"/><path class="cls-2" d="M265.64,257a3.29,3.29,0,0,0-3.06-1.84,3.19,3.19,0,0,0-2.93,1.83l-1.37-.61a4.65,4.65,0,0,1,4.28-2.72h.06a4.77,4.77,0,0,1,4.38,2.7Z" transform="translate(-46.15 -45.73)"/><path class="cls-2" d="M359.39,249.8c-6.31-9.71-14.59-12.05-14.67-12.07l.39-1.45c.36.09,8.89,2.49,15.54,12.7Z" transform="translate(-46.15 -45.73)"/><path class="cls-2" d="M424,230.89a16.57,16.57,0,0,0-14.07-6.21,13.29,13.29,0,0,0-10.86,6.13l-1.28-.77a14.73,14.73,0,0,1,12-6.85A18,18,0,0,1,425.16,230Z" transform="translate(-46.15 -45.73)"/><path class="cls-2" d="M448.76,250.64a16.6,16.6,0,0,0-14.07-6.21c-4.75.31-8.71,2.54-10.86,6.14l-1.29-.77a14.74,14.74,0,0,1,12-6.86,18,18,0,0,1,15.34,6.78Z" transform="translate(-46.15 -45.73)"/><path class="cls-2" d="M515.5,238.13a24.69,24.69,0,0,0-21-9.28c-7.1.45-13,3.8-16.26,9.2l-1.29-.77c3.49-5.83,9.85-9.45,17.46-9.93a26.23,26.23,0,0,1,22.3,9.85Z" transform="translate(-46.15 -45.73)"/><path class="cls-2" d="M534.16,242.43a14.6,14.6,0,0,0-12.4-5.47,11.69,11.69,0,0,0-9.56,5.4l-1.28-.77a13.13,13.13,0,0,1,10.74-6.13,16.12,16.12,0,0,1,13.68,6Z" transform="translate(-46.15 -45.73)"/><path class="cls-2" d="M497.39,228.58l-1.43-.46c.09-.26,2.15-6.42,12.05-13.13l.84,1.24C499.43,222.62,497.41,228.52,497.39,228.58Z" transform="translate(-46.15 -45.73)"/><path class="cls-2" d="M582.5,248.29,581,248c.07-.34,1.8-8.37,6.05-14l1.2.9C584.24,240.25,582.51,248.21,582.5,248.29Z" transform="translate(-46.15 -45.73)"/><path class="cls-2" d="M415.23,224.3l-1.5-.09a43.46,43.46,0,0,1,5.15-16.56l1.31.73A42.7,42.7,0,0,0,415.23,224.3Z" transform="translate(-46.15 -45.73)"/><path class="cls-2" d="M631,252.66l-1.16-.95a26.9,26.9,0,0,1,11.33-7.31l.5,1.41A26,26,0,0,0,631,252.66Z" transform="translate(-46.15 -45.73)"/><path class="cls-1" d="M778,168.16c-2.14,0-6.25.34-8.57-3.27a23.48,23.48,0,0,0-36.49-2,8.52,8.52,0,0,1-9.38,1.78,15.33,15.33,0,0,0-19.72,6.8,4.76,4.76,0,0,1-5.76,1.88,12.81,12.81,0,0,0-15.57,5.37h106s0,0,0,0A10.49,10.49,0,0,0,778,168.16Z" transform="translate(-46.15 -45.73)"/><path class="cls-2" d="M734.05,172c-3.26-3.8-9.22-6.13-9.28-6.15l.54-1.4c.26.1,6.38,2.49,9.88,6.58Z" transform="translate(-46.15 -45.73)"/><path class="cls-2" d="M768.07,173.43l-1.37-.6c.08-.19,2.06-4.54,9.59-5.41l.17,1.49C769.84,169.68,768.14,173.28,768.07,173.43Z" transform="translate(-46.15 -45.73)"/><path class="cls-1" d="M443.45,325.73a12.79,12.79,0,0,0-1.76.12,2.77,2.77,0,0,1-3.34-2.58,19.73,19.73,0,0,0-38.12-5.41c-.67,2-2.62,2.74-4.74,1.77a19.72,19.72,0,0,0-28.11,11.06h86.08A12.58,12.58,0,0,0,443.45,325.73Z" transform="translate(-46.15 -45.73)"/><path class="cls-2" d="M404.68,328.17c-2.69-4.29-8.71-7.57-8.77-7.6l.71-1.32c.27.14,6.43,3.5,9.33,8.12Z" transform="translate(-46.15 -45.73)"/><path class="cls-2" d="M437.27,328.65l-1.14-1c.06-.08,1.74-2,5.9-2.62l.22,1.48C438.69,327.06,437.28,328.64,437.27,328.65Z" transform="translate(-46.15 -45.73)"/></svg>