<svg id="OBJECTS" xmlns="http://www.w3.org/2000/svg" viewBox="0 0 850.13 127.51"><defs><style>.cls-1{fill:#97caef;}.cls-2{fill:#79b3e8;}</style></defs><path class="cls-1" d="M276.66,500a19.61,19.61,0,0,0-27.38-11.79,37.74,37.74,0,0,0-32.49-28.28,34.1,34.1,0,0,0-27.74,8,50.11,50.11,0,0,0-58.55-31.38,14.94,14.94,0,0,0,.21-2.43,16,16,0,0,0-24.54-13.57,47.45,47.45,0,0,0-88-4.42A19.38,19.38,0,0,0,0,398.89V500Z" transform="translate(0.1 -372.49)"/><path class="cls-1" d="M850,500V372.49a100.88,100.88,0,0,0-78.15,68.73,11.68,11.68,0,0,0-5-1.11A11.8,11.8,0,0,0,755.1,451a23.76,23.76,0,0,0-31.21,22.53c0,.25,0,.5,0,.74a51.89,51.89,0,0,0-23.17-6.17,20.57,20.57,0,1,0-39.94,9.78A20.54,20.54,0,0,0,637.59,480a52.12,52.12,0,0,0-81.22,20Z" transform="translate(0.1 -372.49)"/><path class="cls-2" d="M95.59,464.64l-.91-.42c10.2-22.52,35.47-28.06,35.72-28.12l.21,1C130.36,437.13,105.57,442.58,95.59,464.64Z" transform="translate(0.1 -372.49)"/><path class="cls-2" d="M116.18,473.67a28.34,28.34,0,0,0-22.08-8.79,21.94,21.94,0,0,0-16.48,8.74l-.81-.59A23,23,0,0,1,94,463.88,29.32,29.32,0,0,1,116.89,473Z" transform="translate(0.1 -372.49)"/><path class="cls-2" d="M792.69,484a19.15,19.15,0,0,0-14.9-5.93A14.79,14.79,0,0,0,766.68,484l-.8-.59a15.76,15.76,0,0,1,11.84-6.29,20.07,20.07,0,0,1,15.68,6.23Z" transform="translate(0.1 -372.49)"/><path class="cls-2" d="M181.66,480.28l-1-.21c1.68-7.5,7.8-12.3,8.06-12.5l.61.79C189.3,468.41,183.26,473.15,181.66,480.28Z" transform="translate(0.1 -372.49)"/><path class="cls-2" d="M42.55,454.93l-.76-1.65A37.46,37.46,0,0,0,7.85,431.51a37.89,37.89,0,0,0-7.75.8l-.2-1a39.14,39.14,0,0,1,8-.82A38.48,38.48,0,0,1,42,451.41a16,16,0,0,1,28.66-5.91c2-5.27,6.07-9.89,11.7-13.41l.53.85c-5.77,3.6-9.79,8.39-11.62,13.82l-.34,1-.56-.9a15,15,0,0,0-27.63,6.25Z" transform="translate(0.1 -372.49)"/><path class="cls-2" d="M650.9,493.59c-3.64-7.11-13.47-13.11-13.57-13.17l.52-.85c.41.25,10.17,6.21,13.94,13.57Z" transform="translate(0.1 -372.49)"/><path class="cls-2" d="M675.46,490c-10-1.21-14.91-11.41-15.11-11.85l.91-.42c0,.1,4.84,10.13,14.31,11.28Z" transform="translate(0.1 -372.49)"/><path class="cls-2" d="M836.45,435l-.37-.08a20.41,20.41,0,0,0-6.71-.39l-.11-1a21.06,21.06,0,0,1,6.68.34c3.44-5.91,8.15-9.1,14-9.47l.06,1c-5.7.36-10.08,3.39-13.4,9.28Z" transform="translate(0.1 -372.49)"/><path class="cls-2" d="M779.19,477.91a20.92,20.92,0,0,1,9-18,24.87,24.87,0,0,1,22.52-3.43c-2-10.77,5.74-19.36,14.37-22.06l.3,1c-8.43,2.64-16,11.17-13.51,21.76l.22.9-.88-.32a23.91,23.91,0,0,0-22.43,3,20,20,0,0,0-8.56,17.12Z" transform="translate(0.1 -372.49)"/><path class="cls-2" d="M765.8,461.16c-1.9-6.93-10.75-9.64-10.84-9.67l.29-1c.38.12,9.47,2.9,11.52,10.36Z" transform="translate(0.1 -372.49)"/></svg>