<svg id="OBJECTS" xmlns="http://www.w3.org/2000/svg" viewBox="0 0 850.47 260.81"><defs><style>.cls-1{fill:#a8d9f9;}.cls-2{fill:#8bbaea;}</style></defs><path class="cls-1" d="M739.7,336.21A16.64,16.64,0,0,0,716.05,350,33.52,33.52,0,0,0,672,381.84c0,.35,0,.69,0,1a73.18,73.18,0,0,0-32.7-8.71A29,29,0,1,0,582.94,388a29,29,0,0,0-32.76,3,73.57,73.57,0,0,0-118.55,40.43,44.08,44.08,0,0,0-57.87.19A64.79,64.79,0,0,0,298,391a20.39,20.39,0,0,0,.26-3.15,20.7,20.7,0,0,0-31.73-17.55,61.38,61.38,0,0,0-113.84-5.71,25.08,25.08,0,0,0-46.3-10.48A123.4,123.4,0,0,0,0,274.88V500H850V239.19A142.34,142.34,0,0,0,739.7,336.21Z" transform="translate(0.47 -239.19)"/><path class="cls-2" d="M368.63,484.62l-.19-1.81a15,15,0,0,0-27.63-6.25l-.56.9-.34-1c-2.88-8.54-11.38-15.5-22.73-18.62-13.32-3.65-27.39-1.31-35.84,6l-.66-.76c8.7-7.48,23.13-9.9,36.76-6.16,11.43,3.14,19.78,9.78,23.08,18.32a16,16,0,0,1,28.66,5.91,38.48,38.48,0,0,1,34.15-20.9,39.14,39.14,0,0,1,7.95.82l-.2,1a37.89,37.89,0,0,0-7.75-.8A37.46,37.46,0,0,0,369.39,483Z" transform="translate(0.47 -239.19)"/><path class="cls-2" d="M67.33,372.12l-1-.15a15,15,0,0,0-14.9-17.38,15,15,0,0,0-8,2.32l-.54.33-.2-.6A45.63,45.63,0,0,0-.47,325.8v-1a46.62,46.62,0,0,1,43.91,30.94,16.06,16.06,0,0,1,24.09,13.94A17.24,17.24,0,0,1,67.33,372.12Z" transform="translate(0.47 -239.19)"/><path class="cls-2" d="M233.75,441.31l-.72-.18a46.82,46.82,0,0,0-10.69-1.24v-1A47.24,47.24,0,0,1,232.55,440a15.79,15.79,0,0,1-.1-1.62A15.43,15.43,0,0,1,255.56,425c4.11-11.47,12.82-21.07,25.21-27.78l.48.88c-12.38,6.7-21,16.32-24.95,27.81l-.2.6-.53-.34a14.43,14.43,0,0,0-22.12,12.23,15,15,0,0,0,.19,2.19Zm52.86-45.85-.4-.91a80.87,80.87,0,0,1,11.69-4.05l.26,1A81.37,81.37,0,0,0,286.61,395.46Z" transform="translate(0.47 -239.19)"/><path class="cls-2" d="M159.47,395.63c-3-4.74-8.43-7.56-14.67-7.56h-.15c-6.17,0-11.55,2.87-14.38,7.55l-.85-.51c3-5,8.7-8,15.22-8h.16c6.59,0,12.38,3,15.52,8Z" transform="translate(0.47 -239.19)"/><path class="cls-2" d="M578.88,429.81c-5-12.39-12.89-22.43-18.64-28.67l.73-.68c5.81,6.3,13.8,16.44,18.84,29Z" transform="translate(0.47 -239.19)"/><path class="cls-2" d="M555.23,396c-3.18-3-5.34-4.69-5.36-4.7l.61-.8s2.22,1.72,5.43,4.78Z" transform="translate(0.47 -239.19)"/><path class="cls-2" d="M554.31,443.43l-.83-.55c9.34-14.17,29.62-17.83,45.22-8.16l-.53.85C583,426.18,563.36,429.71,554.31,443.43Z" transform="translate(0.47 -239.19)"/><path class="cls-2" d="M474.06,457.07a20.89,20.89,0,0,0-17.2-7.77,17.56,17.56,0,0,0-14,7.73l-.83-.55a18.54,18.54,0,0,1,14.81-8.18,22,22,0,0,1,18,8.14Z" transform="translate(0.47 -239.19)"/><path class="cls-2" d="M355.67,468.88l-1-.05c1.35-26.85,18.64-37.59,18.82-37.7l.52.86C373.85,432.09,357,442.59,355.67,468.88Z" transform="translate(0.47 -239.19)"/><path class="cls-2" d="M739.9,372.11l-.25-.68a32.15,32.15,0,0,0-23.72-20.3l.2-1a33.18,33.18,0,0,1,24.21,20.27,22.6,22.6,0,0,1,29.15.36l-.65.76a21.61,21.61,0,0,0-28.39.09Z" transform="translate(0.47 -239.19)"/><path class="cls-2" d="M648.81,442.54l-1-.22a52.27,52.27,0,0,1,51.28-40.93c1.67,0,3.36.08,5,.24l-.09,1c-1.64-.15-3.29-.23-4.93-.23A51.28,51.28,0,0,0,648.81,442.54Zm83.45-28.09-.32-.26a51.14,51.14,0,0,0-16.44-9.14l.32-.95a52.38,52.38,0,0,1,16.44,9,21.08,21.08,0,0,1,22.45-2.42,20.77,20.77,0,0,1-.48-4.45,21.08,21.08,0,0,1,21.06-21v1a20,20,0,0,0-19.35,25.33l.32,1.16-1-.59a20.08,20.08,0,0,0-22.64,2.05Z" transform="translate(0.47 -239.19)"/><path class="cls-2" d="M621.82,456.06l-.83-.55c9.34-14.17,29.62-17.83,45.22-8.16l-.53.85C650.54,438.82,630.87,442.34,621.82,456.06Z" transform="translate(0.47 -239.19)"/><path class="cls-2" d="M726.46,423l-.93-.38a26,26,0,0,1,6.39-9.2l.68.72A25.06,25.06,0,0,0,726.46,423Z" transform="translate(0.47 -239.19)"/><path class="cls-2" d="M145.41,387.91l-.73-.68c9.17-9.84,7.56-22.47,7.55-22.59l1-.14C153.24,364.63,154.91,377.72,145.41,387.91Z" transform="translate(0.47 -239.19)"/></svg>